<svg xmlns="http://www.w3.org/2000/svg" xmlns:xlink="http://www.w3.org/1999/xlink" width="1920" zoomAndPan="magnify" viewBox="0 0 1440 809.999993" height="1080" preserveAspectRatio="xMidYMid meet" version="1.0"><defs><clipPath id="12bd5bc95b"><path d="M 565.546875 250.691406 L 874.148438 250.691406 L 874.148438 559.292969 L 565.546875 559.292969 Z M 565.546875 250.691406 " clip-rule="nonzero"/></clipPath><clipPath id="88c7e353da"><path d="M 719.847656 250.691406 C 634.628906 250.691406 565.546875 319.773438 565.546875 404.992188 C 565.546875 490.210938 634.628906 559.292969 719.847656 559.292969 C 805.066406 559.292969 874.148438 490.210938 874.148438 404.992188 C 874.148438 319.773438 805.066406 250.691406 719.847656 250.691406 Z M 719.847656 250.691406 " clip-rule="nonzero"/></clipPath><clipPath id="df5a30a83b"><path d="M 571.890625 257.035156 L 867.804688 257.035156 L 867.804688 552.949219 L 571.890625 552.949219 Z M 571.890625 257.035156 " clip-rule="nonzero"/></clipPath><clipPath id="d6ba27d91f"><path d="M 719.847656 257.035156 C 638.132812 257.035156 571.890625 323.277344 571.890625 404.992188 C 571.890625 486.707031 638.132812 552.949219 719.847656 552.949219 C 801.5625 552.949219 867.804688 486.707031 867.804688 404.992188 C 867.804688 323.277344 801.5625 257.035156 719.847656 257.035156 Z M 719.847656 257.035156 " clip-rule="nonzero"/></clipPath><clipPath id="5b4dcf51b3"><path d="M 656.054688 290 L 783.554688 290 L 783.554688 520 L 656.054688 520 Z M 656.054688 290 " clip-rule="nonzero"/></clipPath></defs><rect x="-144" width="1728" fill="#ffffff" y="-80.999999" height="971.999992" fill-opacity="1"/><g clip-path="url(#12bd5bc95b)"><g clip-path="url(#88c7e353da)"><path fill="#41d4d4" d="M 565.546875 250.691406 L 874.148438 250.691406 L 874.148438 559.292969 L 565.546875 559.292969 Z M 565.546875 250.691406 " fill-opacity="1" fill-rule="nonzero"/></g></g><g clip-path="url(#df5a30a83b)"><g clip-path="url(#d6ba27d91f)"><path fill="#ffffff" d="M 571.890625 257.035156 L 867.804688 257.035156 L 867.804688 552.949219 L 571.890625 552.949219 Z M 571.890625 257.035156 " fill-opacity="1" fill-rule="nonzero"/></g></g><g clip-path="url(#5b4dcf51b3)"><path fill="#41d4d4" d="M 781.777344 306.78125 L 770.167969 304.105469 C 768.476562 300.527344 762.558594 290.609375 749.023438 290.609375 C 732.75 290.609375 721.808594 305.5625 715.582031 336.320312 C 715.265625 337.882812 715.054688 339.3125 714.945312 340.621094 C 692.9375 366.738281 682.933594 429.132812 682.4375 432.324219 C 682.234375 433.609375 683.113281 434.816406 684.398438 435.019531 C 685.679688 435.207031 686.894531 434.339844 687.09375 433.050781 C 687.207031 432.316406 696.53125 374.046875 715.609375 347.21875 C 715.9375 348.074219 716.371094 348.832031 716.910156 349.492188 C 719.613281 352.78125 724.09375 352.734375 728.457031 352.746094 C 732.730469 352.722656 736.765625 352.710938 739.253906 355.371094 C 741.625 357.898438 742.566406 362.898438 742.054688 370.164062 C 741.101562 380.011719 731.738281 389.425781 719.890625 401.347656 C 697.691406 423.679688 667.292969 454.261719 656.304688 516.773438 C 656.078125 518.058594 656.933594 519.28125 658.21875 519.507812 C 658.355469 519.527344 658.496094 519.542969 658.628906 519.542969 C 659.753906 519.542969 660.75 518.734375 660.949219 517.589844 C 671.679688 456.539062 701.476562 426.558594 723.234375 404.671875 C 735.75 392.085938 745.632812 382.140625 746.753906 370.558594 C 747.375 361.746094 746.046875 355.722656 742.695312 352.144531 C 738.804688 347.984375 733.058594 347.984375 728.4375 348.03125 C 725.035156 348.019531 721.835938 348.058594 720.558594 346.5 C 719.875 345.667969 719.5625 344.222656 719.59375 342.257812 C 723.300781 338.222656 727.320312 335.390625 731.675781 334.367188 C 744.699219 331.304688 760.378906 345.152344 765.222656 363.996094 C 767.992188 374.796875 772.503906 411.3125 713.996094 427.664062 C 713.078125 427.917969 712.410156 428.695312 712.289062 429.636719 C 712.171875 430.582031 712.628906 431.5 713.453125 431.976562 L 733.890625 443.765625 C 734.261719 443.980469 734.667969 444.082031 735.070312 444.082031 C 735.882812 444.082031 736.675781 443.660156 737.113281 442.902344 C 737.761719 441.773438 737.375 440.332031 736.246094 439.679688 L 720.542969 430.617188 C 765.8125 416.046875 775.832031 386.355469 769.789062 362.820312 C 764.242188 341.226562 746.292969 326.101562 730.597656 329.777344 C 727.09375 330.597656 723.808594 332.402344 720.71875 334.898438 C 726.414062 308.664062 735.925781 295.324219 749.023438 295.324219 C 762.027344 295.324219 766.082031 306.433594 766.246094 306.898438 C 766.507812 307.667969 767.15625 308.246094 767.945312 308.429688 L 773.503906 309.714844 C 769.042969 312.1875 764.148438 316.410156 764.148438 323.035156 C 764.148438 333.207031 764.933594 345.464844 764.941406 345.585938 C 765.027344 346.886719 766.144531 347.875 767.445312 347.789062 C 768.746094 347.703125 769.734375 346.582031 769.648438 345.28125 C 769.640625 345.160156 768.867188 333.058594 768.867188 323.035156 C 768.867188 314.785156 781.699219 311.398438 781.828125 311.363281 C 782.882812 311.09375 783.613281 310.140625 783.601562 309.050781 C 783.59375 307.96875 782.839844 307.027344 781.777344 306.78125 Z M 781.777344 306.78125 " fill-opacity="1" fill-rule="nonzero"/></g></svg>