<svg xmlns="http://www.w3.org/2000/svg" xmlns:xlink="http://www.w3.org/1999/xlink" width="1920" zoomAndPan="magnify" viewBox="0 0 1440 809.999993" height="1080" preserveAspectRatio="xMidYMid meet" version="1.0"><defs><clipPath id="aae0be9a5d"><path d="M 565.546875 250.691406 L 874.148438 250.691406 L 874.148438 559.292969 L 565.546875 559.292969 Z M 565.546875 250.691406 " clip-rule="nonzero"/></clipPath><clipPath id="e2dc6b3958"><path d="M 719.847656 250.691406 C 634.628906 250.691406 565.546875 319.773438 565.546875 404.992188 C 565.546875 490.210938 634.628906 559.292969 719.847656 559.292969 C 805.066406 559.292969 874.148438 490.210938 874.148438 404.992188 C 874.148438 319.773438 805.066406 250.691406 719.847656 250.691406 Z M 719.847656 250.691406 " clip-rule="nonzero"/></clipPath><clipPath id="86fb2eb331"><path d="M 571.890625 257.035156 L 867.804688 257.035156 L 867.804688 552.949219 L 571.890625 552.949219 Z M 571.890625 257.035156 " clip-rule="nonzero"/></clipPath><clipPath id="a4fe8f97c6"><path d="M 719.847656 257.035156 C 638.132812 257.035156 571.890625 323.277344 571.890625 404.992188 C 571.890625 486.707031 638.132812 552.949219 719.847656 552.949219 C 801.5625 552.949219 867.804688 486.707031 867.804688 404.992188 C 867.804688 323.277344 801.5625 257.035156 719.847656 257.035156 Z M 719.847656 257.035156 " clip-rule="nonzero"/></clipPath><clipPath id="31af87bee5"><path d="M 610.816406 310.320312 L 841.066406 310.320312 L 841.066406 499.320312 L 610.816406 499.320312 Z M 610.816406 310.320312 " clip-rule="nonzero"/></clipPath></defs><rect x="-144" width="1728" fill="#ffffff" y="-80.999999" height="971.999992" fill-opacity="1"/><g clip-path="url(#aae0be9a5d)"><g clip-path="url(#e2dc6b3958)"><path fill="#41d4d4" d="M 565.546875 250.691406 L 874.148438 250.691406 L 874.148438 559.292969 L 565.546875 559.292969 Z M 565.546875 250.691406 " fill-opacity="1" fill-rule="nonzero"/></g></g><g clip-path="url(#86fb2eb331)"><g clip-path="url(#a4fe8f97c6)"><path fill="#ffffff" d="M 571.890625 257.035156 L 867.804688 257.035156 L 867.804688 552.949219 L 571.890625 552.949219 Z M 571.890625 257.035156 " fill-opacity="1" fill-rule="nonzero"/></g></g><g clip-path="url(#31af87bee5)"><path fill="#41d4d4" d="M 706.617188 310.320312 L 716.421875 310.320312 C 718.191406 310.519531 719.953125 310.710938 721.714844 310.886719 C 734.390625 312.183594 746.566406 316.804688 756.449219 325.066406 C 757.363281 325.828125 758.375 326.972656 759.414062 327.863281 C 759.53125 327.960938 759.667969 328.015625 759.828125 328.023438 C 761.5625 328.078125 763.441406 327.953125 765.046875 328.410156 C 770.753906 330.035156 774.753906 334.945312 775.46875 340.792969 C 775.492188 340.96875 775.492188 342.160156 775.46875 344.363281 C 775.429688 348.582031 777.375 351.792969 781.3125 353.988281 C 785.679688 356.421875 789.902344 358.273438 793.976562 359.546875 C 802.558594 362.222656 811.210938 364.632812 819.941406 366.773438 C 823.828125 367.726562 826.558594 368.1875 828.128906 368.15625 C 833.023438 368.0625 837.625 368.589844 839.59375 373.5625 C 840.140625 374.945312 840.621094 377.660156 841.03125 381.695312 L 841.03125 386.117188 C 840.5625 391.214844 838.617188 394.1875 835.90625 397.941406 C 835.816406 398.0625 835.769531 398.203125 835.765625 398.355469 C 835.558594 405.011719 834.523438 410.554688 829.914062 415.453125 C 827.585938 417.933594 824.046875 419.828125 820.886719 421.375 C 820.523438 421.554688 820.304688 421.84375 820.238281 422.242188 C 818.320312 433.441406 809.40625 441.730469 798.148438 443.011719 C 795.914062 443.265625 793.886719 443.664062 791.484375 443.214844 C 790.824219 443.09375 789.96875 443.015625 788.921875 442.992188 C 787.695312 442.960938 786.570312 442.585938 785.464844 442.539062 C 776.886719 442.167969 768.796875 442.117188 760.871094 443.550781 C 750.308594 445.460938 737.464844 452.417969 733.597656 462.9375 C 733.214844 463.976562 732.992188 465.207031 732.929688 466.625 C 732.75 470.980469 732.714844 474.230469 731.339844 478.03125 C 728.582031 485.628906 724.992188 492.820312 720.574219 499.59375 C 720.546875 499.640625 720.507812 499.652344 720.457031 499.628906 C 720.40625 499.605469 720.390625 499.570312 720.410156 499.515625 C 723.84375 489.039062 726.84375 478.371094 727.472656 467.304688 C 727.597656 465.082031 727.835938 463.382812 728.191406 462.207031 C 730.390625 454.851562 736.8125 448.441406 743.207031 444.496094 C 749.070312 440.878906 755.691406 438.59375 763.078125 437.648438 C 771.46875 436.570312 779.296875 436.410156 786.558594 437.167969 C 790.746094 437.605469 793.894531 437.777344 796.011719 437.683594 C 804.847656 437.300781 814.023438 431.042969 814.769531 421.679688 C 814.820312 421.058594 814.574219 420.898438 814.027344 421.207031 C 803.832031 426.933594 790.648438 432.785156 778.835938 431.203125 C 774.476562 430.617188 770.332031 429.355469 766.40625 427.417969 C 761.890625 425.191406 758.582031 423.570312 756.484375 422.558594 C 748.425781 418.679688 738.53125 418.433594 730.824219 423.285156 C 730.746094 423.34375 730.671875 423.335938 730.613281 423.253906 C 730.550781 423.175781 730.5625 423.105469 730.640625 423.042969 C 738.671875 415.585938 750.753906 414.960938 760.292969 419.675781 C 765.890625 422.441406 771.496094 425.429688 776.886719 426.6875 C 789.144531 429.539062 802.800781 424.796875 813.585938 419.03125 C 816.828125 417.296875 820.09375 415.585938 823.371094 413.898438 C 828.109375 411.460938 830.46875 404.824219 830.308594 399.882812 C 830.269531 398.769531 829.707031 397.777344 828.613281 396.917969 C 825.511719 394.46875 822.21875 392.292969 818.746094 390.382812 C 816.46875 389.136719 814.796875 387.414062 813.902344 384.941406 C 811.675781 378.789062 816.136719 376.273438 820.402344 373.242188 C 820.988281 372.824219 820.933594 372.53125 820.230469 372.363281 C 810.105469 369.917969 800.058594 367.097656 790.089844 363.894531 C 786.761719 362.824219 783.390625 361.304688 779.96875 359.335938 C 774.070312 355.933594 770.3125 352.394531 770.289062 345.570312 C 770.277344 342.953125 770.273438 341.644531 770.273438 341.636719 C 769.5 336.097656 765.238281 332.726562 759.617188 333.523438 C 759.433594 333.550781 759.390625 333.644531 759.480469 333.804688 C 759.90625 334.554688 760.035156 335.375 759.867188 336.261719 C 759.859375 336.328125 759.871094 336.386719 759.898438 336.445312 L 760.0625 336.746094 C 760.101562 336.839844 760.074219 336.914062 759.984375 336.960938 C 759.898438 337.011719 759.820312 337 759.757812 336.917969 C 753.582031 326.445312 740.371094 319.929688 728.90625 317.46875 C 722.296875 316.046875 717.03125 315.71875 710.390625 315.761719 C 707.382812 315.777344 704.914062 315.921875 702.988281 316.1875 C 698.390625 316.828125 693.921875 318.027344 689.582031 319.785156 C 688.625 320.175781 687.035156 320.398438 684.8125 320.460938 C 682.613281 320.523438 679.1875 320.007812 676.742188 320.390625 C 672.816406 321.007812 669.566406 322.796875 667 325.753906 C 666.25 326.617188 665.433594 327.921875 664.554688 329.660156 C 662.769531 333.203125 661.058594 336.503906 658.191406 339.664062 C 657.175781 340.785156 655.425781 342.449219 652.949219 344.652344 C 646.425781 350.46875 640.011719 356.402344 633.707031 362.457031 C 630.339844 365.695312 620.648438 375.5625 626.882812 380.109375 C 630.199219 382.53125 632.855469 385.484375 634.851562 388.976562 C 636.339844 391.570312 638.296875 395.507812 640.230469 398.242188 C 647.238281 408.183594 657.441406 416.902344 667.410156 423.761719 C 670.132812 425.632812 673.589844 427.601562 676.246094 428.667969 C 684.921875 432.140625 693.257812 427.089844 697.664062 419.691406 C 701.28125 413.625 703.328125 406.714844 703.800781 398.960938 C 704.296875 390.875 703.339844 382.96875 700.9375 375.234375 C 699.480469 370.542969 697.53125 364.929688 695.082031 358.390625 C 693.578125 354.382812 692.71875 350.101562 692.5 345.546875 C 692.421875 343.949219 692.75 342.285156 692.894531 340.578125 C 693.429688 334.28125 697.167969 328.136719 701.835938 323.964844 C 701.882812 323.925781 701.925781 323.925781 701.972656 323.960938 C 702.019531 324 702.03125 324.042969 702.003906 324.097656 C 698.195312 331.308594 696.125 340.246094 697.367188 348.382812 C 698.160156 353.542969 700.917969 360.167969 702.773438 365.898438 C 707.4375 380.300781 708.273438 394.929688 705.273438 409.792969 C 703.984375 416.191406 701.148438 423.132812 696.613281 427.660156 C 691.730469 432.539062 685.402344 434.445312 677.632812 433.390625 C 674.003906 432.898438 671.597656 432.148438 668.308594 430.230469 C 659.769531 425.246094 652.011719 419.070312 645.035156 411.699219 C 644.917969 411.574219 644.773438 411.535156 644.609375 411.574219 C 644.445312 411.617188 644.339844 411.722656 644.296875 411.886719 C 641.058594 423.804688 637.121094 435.582031 632.480469 447.21875 C 626.066406 463.304688 619.113281 479.421875 611.144531 494.800781 C 611.09375 494.898438 611.035156 494.898438 610.976562 494.808594 C 610.941406 494.753906 610.9375 494.6875 610.972656 494.609375 C 621.023438 469.449219 629.875 443.640625 636.296875 417.300781 C 637.222656 413.5 638.007812 409.75 638.652344 406.054688 C 638.742188 405.550781 638.621094 405.097656 638.296875 404.695312 C 635.246094 400.964844 633.082031 396.855469 630.65625 392.65625 C 628.671875 389.207031 626.648438 386.828125 623.808594 384.394531 C 622.28125 383.09375 621.308594 382.109375 620.890625 381.449219 C 619.128906 378.683594 619.445312 375.789062 620.175781 372.734375 C 621.214844 368.382812 625.152344 363.5625 628.320312 360.484375 C 635.355469 353.648438 642.507812 346.933594 649.777344 340.347656 C 653.152344 337.292969 656.453125 334.03125 658.121094 330.59375 C 659.542969 327.652344 660.925781 324.476562 663.042969 322.152344 C 666.902344 317.902344 671.714844 315.433594 677.480469 314.738281 C 679.691406 314.476562 682.523438 314.9375 685.117188 314.871094 C 688.554688 314.789062 692.203125 312.949219 695.515625 312.109375 C 698.140625 311.441406 700.269531 311.027344 701.902344 310.871094 C 704.339844 310.636719 705.910156 310.453125 706.617188 310.320312 Z M 834.84375 389.445312 C 834.976562 388.992188 835.117188 388.550781 835.265625 388.113281 C 835.433594 387.632812 835.539062 387.183594 835.578125 386.769531 C 835.910156 383.480469 835.683594 380.0625 834.898438 376.523438 C 834.648438 375.378906 834.253906 374.410156 833.035156 374.125 C 830.621094 373.570312 828.265625 373.675781 825.789062 373.492188 C 824.257812 373.378906 823.476562 373.738281 822.253906 374.507812 C 820.140625 375.84375 815.675781 378.484375 815.480469 380.972656 C 815.195312 384.5625 816.695312 387.007812 819.980469 388.316406 C 821.609375 388.960938 823.125 388.882812 824.53125 388.078125 C 826.414062 387 825.953125 384.179688 826.734375 382.347656 C 827.996094 379.382812 831.074219 379.632812 832.257812 382.449219 C 833.589844 385.597656 832.984375 388.835938 832.613281 392.253906 C 832.597656 392.386719 832.652344 392.480469 832.769531 392.535156 C 832.890625 392.59375 832.996094 392.574219 833.089844 392.480469 C 833.914062 391.644531 834.5 390.632812 834.84375 389.445312 Z M 829.507812 392.367188 C 829.746094 392.371094 829.980469 392.261719 830.207031 392.027344 C 830.433594 391.796875 830.640625 391.460938 830.820312 391.027344 C 831.003906 390.589844 831.148438 390.085938 831.257812 389.511719 C 831.363281 388.9375 831.429688 388.339844 831.445312 387.71875 C 831.464844 387.09375 831.4375 386.492188 831.363281 385.914062 C 831.289062 385.335938 831.171875 384.824219 831.019531 384.375 C 830.863281 383.929688 830.679688 383.585938 830.464844 383.339844 C 830.25 383.09375 830.023438 382.96875 829.785156 382.960938 C 829.546875 382.953125 829.316406 383.066406 829.085938 383.300781 C 828.859375 383.53125 828.65625 383.863281 828.472656 384.300781 C 828.292969 384.738281 828.144531 385.242188 828.039062 385.816406 C 827.929688 386.386719 827.867188 386.988281 827.847656 387.609375 C 827.828125 388.234375 827.855469 388.835938 827.929688 389.414062 C 828.003906 389.992188 828.121094 390.503906 828.277344 390.949219 C 828.429688 391.394531 828.617188 391.742188 828.828125 391.988281 C 829.042969 392.230469 829.269531 392.359375 829.507812 392.367188 Z M 829.507812 392.367188 " fill-opacity="1" fill-rule="nonzero"/></g><path fill="#41d4d4" d="M 736.347656 359.53125 C 736.285156 359.597656 736.257812 359.679688 736.261719 359.769531 C 736.265625 359.863281 736.300781 359.941406 736.371094 360 C 738.722656 362.027344 741.347656 363.582031 744.242188 364.664062 C 748.1875 366.140625 752.457031 365.980469 757.054688 364.179688 C 757.074219 364.171875 757.089844 364.175781 757.101562 364.1875 C 757.117188 364.199219 757.125 364.210938 757.121094 364.230469 C 757.058594 364.671875 756.847656 365.046875 756.480469 365.351562 C 752.53125 368.683594 747.179688 368.933594 742.460938 367.441406 C 737.523438 365.875 733.953125 362.183594 728.5625 361.707031 C 728.503906 361.703125 728.46875 361.667969 728.453125 361.613281 C 728.441406 361.554688 728.457031 361.507812 728.507812 361.476562 C 731.777344 359.375 734.695312 356.839844 737.257812 353.875 C 739.300781 351.5 742.914062 348.625 745.824219 347.886719 C 753.167969 346.023438 754.746094 354.59375 759.304688 357.808594 C 760.425781 358.601562 761.699219 359.167969 763.132812 359.511719 C 763.253906 359.535156 763.3125 359.609375 763.304688 359.734375 C 763.296875 359.859375 763.234375 359.925781 763.109375 359.9375 C 761.96875 360.085938 760.773438 360.484375 759.742188 360.496094 C 754.671875 360.5625 754.242188 355.734375 751 353.160156 C 746.085938 349.261719 739.402344 356.328125 736.347656 359.53125 Z M 736.347656 359.53125 " fill-opacity="1" fill-rule="nonzero"/><path fill="#41d4d4" d="M 667.40625 366.417969 C 667.589844 365.71875 667.777344 365.019531 667.96875 364.320312 C 667.988281 364.242188 668.039062 364.207031 668.121094 364.214844 C 668.203125 364.222656 668.246094 364.269531 668.253906 364.355469 C 668.457031 367.339844 667.871094 370.367188 667.859375 373.152344 C 667.847656 376.8125 667.367188 380.644531 667.371094 384.027344 C 667.375 386.859375 667.375 389.667969 667.371094 392.457031 C 667.367188 392.515625 667.339844 392.550781 667.28125 392.558594 C 667.226562 392.570312 667.1875 392.546875 667.164062 392.496094 C 664.425781 384.351562 664.3125 376.195312 666.820312 368.023438 C 666.832031 367.996094 666.871094 367.808594 666.941406 367.457031 C 667.023438 367.050781 667.300781 366.816406 667.40625 366.417969 Z M 667.40625 366.417969 " fill-opacity="1" fill-rule="nonzero"/><path fill="#41d4d4" d="M 662.96875 413.300781 C 663.074219 413.410156 663.144531 413.5 663.179688 413.574219 C 663.214844 413.664062 663.195312 413.738281 663.121094 413.796875 C 663.046875 413.855469 662.972656 413.859375 662.898438 413.804688 C 656.492188 409.351562 651.230469 403.910156 647.113281 397.476562 C 645.867188 395.527344 644.3125 392.671875 642.449219 388.914062 C 639.199219 382.359375 634.464844 377.945312 628.523438 373.847656 C 628.453125 373.800781 628.398438 373.742188 628.359375 373.675781 C 628.304688 373.582031 628.265625 373.507812 628.246094 373.457031 C 628.21875 373.382812 628.230469 373.316406 628.28125 373.257812 C 628.332031 373.199219 628.394531 373.175781 628.472656 373.1875 C 646.074219 376.328125 653.429688 391.050781 659.40625 405.992188 C 660.425781 408.535156 661.550781 410.730469 662.769531 413.046875 C 662.816406 413.132812 662.882812 413.21875 662.96875 413.300781 Z M 662.96875 413.300781 " fill-opacity="1" fill-rule="nonzero"/><path fill="#41d4d4" d="M 695.460938 493.148438 C 694.238281 492.015625 692.960938 490.628906 691.636719 488.992188 C 681.132812 476.015625 675.601562 460.246094 674.113281 443.71875 C 674.109375 443.660156 674.132812 443.625 674.1875 443.609375 C 674.242188 443.59375 674.28125 443.609375 674.308594 443.660156 C 683.503906 459.269531 691.59375 475.117188 695.644531 493.039062 C 695.699219 493.277344 695.636719 493.3125 695.460938 493.148438 Z M 695.460938 493.148438 " fill-opacity="1" fill-rule="nonzero"/></svg>