<svg xmlns="http://www.w3.org/2000/svg" xmlns:xlink="http://www.w3.org/1999/xlink" width="1920" zoomAndPan="magnify" viewBox="0 0 1440 809.999993" height="1080" preserveAspectRatio="xMidYMid meet" version="1.0"><defs><clipPath id="1448775b6a"><path d="M 565.546875 250.691406 L 874.148438 250.691406 L 874.148438 559.292969 L 565.546875 559.292969 Z M 565.546875 250.691406 " clip-rule="nonzero"/></clipPath><clipPath id="e0cda8ff09"><path d="M 719.847656 250.691406 C 634.628906 250.691406 565.546875 319.773438 565.546875 404.992188 C 565.546875 490.210938 634.628906 559.292969 719.847656 559.292969 C 805.066406 559.292969 874.148438 490.210938 874.148438 404.992188 C 874.148438 319.773438 805.066406 250.691406 719.847656 250.691406 Z M 719.847656 250.691406 " clip-rule="nonzero"/></clipPath><clipPath id="998f7f3d0b"><path d="M 571.890625 257.035156 L 867.804688 257.035156 L 867.804688 552.949219 L 571.890625 552.949219 Z M 571.890625 257.035156 " clip-rule="nonzero"/></clipPath><clipPath id="e13f595cff"><path d="M 719.847656 257.035156 C 638.132812 257.035156 571.890625 323.277344 571.890625 404.992188 C 571.890625 486.707031 638.132812 552.949219 719.847656 552.949219 C 801.5625 552.949219 867.804688 486.707031 867.804688 404.992188 C 867.804688 323.277344 801.5625 257.035156 719.847656 257.035156 Z M 719.847656 257.035156 " clip-rule="nonzero"/></clipPath><clipPath id="aef2f18790"><path d="M 604.648438 357 L 834.898438 357 L 834.898438 453 L 604.648438 453 Z M 604.648438 357 " clip-rule="nonzero"/></clipPath></defs><rect x="-144" width="1728" fill="#ffffff" y="-80.999999" height="971.999992" fill-opacity="1"/><g clip-path="url(#1448775b6a)"><g clip-path="url(#e0cda8ff09)"><path fill="#41d4d4" d="M 565.546875 250.691406 L 874.148438 250.691406 L 874.148438 559.292969 L 565.546875 559.292969 Z M 565.546875 250.691406 " fill-opacity="1" fill-rule="nonzero"/></g></g><g clip-path="url(#998f7f3d0b)"><g clip-path="url(#e13f595cff)"><path fill="#ffffff" d="M 571.890625 257.035156 L 867.804688 257.035156 L 867.804688 552.949219 L 571.890625 552.949219 Z M 571.890625 257.035156 " fill-opacity="1" fill-rule="nonzero"/></g></g><g clip-path="url(#aef2f18790)"><path fill="#41d4d4" d="M 833.355469 406.273438 C 831.480469 406.328125 829.695312 407.054688 827.828125 406.765625 C 827.789062 406.636719 827.753906 406.398438 827.734375 406.273438 C 829.347656 405.542969 831.132812 405.089844 832.605469 404.035156 C 833.394531 403.269531 834.523438 402.359375 833.996094 401.105469 C 833.40625 398.519531 831.042969 396.917969 829.003906 395.515625 C 826.5625 393.804688 823.820312 392.675781 821.21875 391.3125 C 818.359375 390.09375 814.503906 385.605469 775.65625 378.261719 C 761.332031 375.519531 746.820312 374.269531 746.214844 373.816406 C 732.828125 374.0625 719.328125 358.824219 715.214844 357.605469 C 714.578125 357.183594 714.105469 358.839844 713.792969 358.839844 L 713.796875 358.839844 C 713.410156 361.261719 712.308594 379.332031 714.527344 380.007812 C 712.03125 380.753906 709.417969 380.664062 706.882812 381.210938 C 702.714844 382.011719 681.5625 388.394531 670.730469 390.882812 C 666.890625 391.59375 662.953125 391.453125 659.066406 391.46875 C 655.3125 391.398438 651.621094 390.566406 648.015625 389.625 C 643.613281 388.371094 608.191406 373.550781 607.953125 374.765625 C 608.042969 384.613281 613.289062 391.285156 617.035156 400.039062 C 617.164062 401.3125 617.6875 402.546875 617.511719 403.859375 C 615.433594 410.625 607.550781 416.472656 605.609375 423.476562 C 605.625 424.824219 605.042969 426.023438 604.546875 427.242188 C 606.171875 427.347656 607.792969 427.441406 609.425781 427.402344 C 612.976562 426.984375 633.785156 421.742188 636.984375 420.996094 C 640.113281 420.269531 643.042969 418.9375 646.136719 418.175781 C 647.890625 417.757812 649.472656 416.847656 651.230469 416.554688 C 654.726562 416.097656 658.261719 415.664062 661.792969 416.007812 C 664.253906 416.261719 666.703125 416.5 669.128906 417.027344 C 670.964844 417.429688 684.539062 419.996094 692.667969 422.777344 C 698.015625 423.195312 718.296875 431.460938 720.207031 431.863281 C 717.085938 436.949219 717.429688 439.742188 716.625 445.785156 C 716.101562 447.914062 716.007812 450.355469 717.492188 452.117188 C 718.167969 452.753906 719.265625 452.789062 720.023438 452.285156 C 730.984375 440.625 743.285156 436.136719 743.8125 434.480469 C 750.488281 435.277344 757.210938 434.589844 763.90625 434.625 C 800.746094 434.238281 826.308594 414.679688 828.65625 413.386719 C 830.625 412.386719 832.722656 411.273438 833.90625 409.328125 C 834.847656 408.472656 834.523438 406.730469 833.355469 406.273438 Z M 811.0625 405.113281 C 808.894531 405.113281 807.136719 403.355469 807.136719 401.183594 C 807.136719 399.011719 808.894531 397.25 811.0625 397.25 C 813.238281 397.25 815 399.011719 815 401.183594 C 815 403.355469 813.238281 405.113281 811.0625 405.113281 Z M 811.0625 405.113281 " fill-opacity="1" fill-rule="nonzero"/></g></svg>