<svg xmlns="http://www.w3.org/2000/svg" xmlns:xlink="http://www.w3.org/1999/xlink" width="1920" zoomAndPan="magnify" viewBox="0 0 1440 809.999993" height="1080" preserveAspectRatio="xMidYMid meet" version="1.0"><defs><clipPath id="e9c5adfc27"><path d="M 565.546875 250.691406 L 874.148438 250.691406 L 874.148438 559.292969 L 565.546875 559.292969 Z M 565.546875 250.691406 " clip-rule="nonzero"/></clipPath><clipPath id="9e3b7f5a7f"><path d="M 719.847656 250.691406 C 634.628906 250.691406 565.546875 319.773438 565.546875 404.992188 C 565.546875 490.210938 634.628906 559.292969 719.847656 559.292969 C 805.066406 559.292969 874.148438 490.210938 874.148438 404.992188 C 874.148438 319.773438 805.066406 250.691406 719.847656 250.691406 Z M 719.847656 250.691406 " clip-rule="nonzero"/></clipPath><clipPath id="ffd8f87096"><path d="M 571.890625 257.035156 L 867.804688 257.035156 L 867.804688 552.949219 L 571.890625 552.949219 Z M 571.890625 257.035156 " clip-rule="nonzero"/></clipPath><clipPath id="c14b305516"><path d="M 719.847656 257.035156 C 638.132812 257.035156 571.890625 323.277344 571.890625 404.992188 C 571.890625 486.707031 638.132812 552.949219 719.847656 552.949219 C 801.5625 552.949219 867.804688 486.707031 867.804688 404.992188 C 867.804688 323.277344 801.5625 257.035156 719.847656 257.035156 Z M 719.847656 257.035156 " clip-rule="nonzero"/></clipPath><clipPath id="72dc56dea5"><path d="M 685.433594 289.792969 L 754.433594 289.792969 L 754.433594 520.042969 L 685.433594 520.042969 Z M 685.433594 289.792969 " clip-rule="nonzero"/></clipPath></defs><rect x="-144" width="1728" fill="#ffffff" y="-80.999999" height="971.999992" fill-opacity="1"/><g clip-path="url(#e9c5adfc27)"><g clip-path="url(#9e3b7f5a7f)"><path fill="#41d4d4" d="M 565.546875 250.691406 L 874.148438 250.691406 L 874.148438 559.292969 L 565.546875 559.292969 Z M 565.546875 250.691406 " fill-opacity="1" fill-rule="nonzero"/></g></g><g clip-path="url(#ffd8f87096)"><g clip-path="url(#c14b305516)"><path fill="#ffffff" d="M 571.890625 257.035156 L 867.804688 257.035156 L 867.804688 552.949219 L 571.890625 552.949219 Z M 571.890625 257.035156 " fill-opacity="1" fill-rule="nonzero"/></g></g><g clip-path="url(#72dc56dea5)"><path fill="#41d4d4" d="M 750.226562 431.402344 C 748.828125 428.847656 746.605469 426.476562 743.839844 424.921875 C 743.507812 424.730469 743.121094 424.527344 742.730469 424.347656 C 742.34375 424.171875 741.949219 424.007812 741.550781 423.867188 C 740.753906 423.578125 739.941406 423.363281 739.132812 423.214844 C 737.515625 422.914062 735.921875 422.894531 734.417969 423.050781 C 731.398438 423.375 728.714844 424.363281 726.285156 425.773438 C 723.917969 427.15625 722.015625 428.800781 720.347656 430.410156 C 718.6875 432.019531 717.273438 433.597656 715.949219 435 C 714.640625 436.390625 713.402344 437.609375 712.191406 438.570312 C 710.980469 439.535156 709.828125 440.207031 708.761719 440.578125 C 708.480469 440.683594 708.257812 440.742188 708 440.800781 C 707.746094 440.859375 707.488281 440.902344 707.21875 440.929688 C 706.683594 440.984375 706.125 440.988281 705.550781 440.917969 C 704.40625 440.792969 703.210938 440.410156 702.144531 439.820312 C 701.074219 439.234375 700.132812 438.4375 699.441406 437.550781 C 699.261719 437.332031 699.109375 437.109375 698.960938 436.871094 C 698.808594 436.625 698.664062 436.375 698.535156 436.109375 C 698.273438 435.585938 698.066406 435.015625 697.902344 434.421875 C 697.578125 433.230469 697.46875 431.921875 697.582031 430.617188 C 697.695312 429.3125 698.035156 428.023438 698.5625 426.863281 C 698.699219 426.578125 698.839844 426.292969 698.996094 426.023438 C 699.070312 425.886719 699.152344 425.757812 699.238281 425.625 C 699.3125 425.5 699.433594 425.332031 699.527344 425.1875 C 699.945312 424.589844 700.386719 423.996094 700.890625 423.445312 C 701.390625 422.894531 701.921875 422.363281 702.488281 421.863281 C 703.0625 421.367188 703.664062 420.902344 704.285156 420.46875 C 704.914062 420.039062 705.574219 419.648438 706.242188 419.289062 L 706.75 419.027344 L 707.265625 418.789062 C 707.4375 418.703125 707.617188 418.636719 707.789062 418.5625 L 708.050781 418.449219 L 708.390625 418.316406 C 712.015625 416.871094 715.667969 415.566406 719.460938 414.308594 C 721.355469 413.675781 723.285156 413.046875 725.273438 412.367188 C 727.257812 411.6875 729.316406 410.945312 731.410156 410.050781 C 731.929688 409.824219 732.457031 409.582031 732.984375 409.347656 C 733.507812 409.101562 734.03125 408.835938 734.554688 408.578125 C 735.078125 408.3125 735.597656 408.023438 736.117188 407.742188 C 736.617188 407.46875 737.042969 407.226562 737.519531 406.949219 C 738.445312 406.414062 739.398438 405.847656 740.359375 405.234375 C 741.320312 404.621094 742.292969 403.972656 743.265625 403.238281 C 744.238281 402.507812 745.210938 401.722656 746.15625 400.839844 C 747.101562 399.949219 748.015625 398.972656 748.871094 397.902344 L 749.5 397.078125 C 749.703125 396.800781 749.898438 396.503906 750.09375 396.21875 C 750.488281 395.640625 750.847656 395.019531 751.1875 394.40625 C 751.855469 393.164062 752.410156 391.875 752.847656 390.554688 C 753.714844 387.914062 754.132812 385.15625 754.078125 382.375 C 754.019531 379.59375 753.492188 376.785156 752.40625 374.105469 C 751.863281 372.765625 751.195312 371.46875 750.371094 370.238281 C 749.539062 368.992188 748.589844 367.851562 747.539062 366.835938 C 746.492188 365.816406 745.355469 364.914062 744.148438 364.136719 C 742.941406 363.351562 741.667969 362.6875 740.335938 362.152344 C 739.003906 361.613281 737.613281 361.203125 736.183594 360.929688 C 734.753906 360.65625 733.273438 360.53125 731.78125 360.5625 C 730.285156 360.589844 728.765625 360.796875 727.277344 361.179688 C 726.902344 361.269531 726.535156 361.390625 726.167969 361.5 L 725.113281 361.867188 L 724.101562 362.285156 L 723.121094 362.746094 C 720.566406 364.027344 718.480469 365.652344 716.699219 367.265625 C 715.804688 368.078125 714.980469 368.894531 714.207031 369.695312 L 712.082031 371.933594 C 710.726562 373.359375 709.386719 374.738281 708.136719 375.871094 C 707.824219 376.152344 707.523438 376.410156 707.246094 376.640625 C 706.957031 376.875 706.699219 377.0625 706.527344 377.179688 C 706.136719 377.445312 705.683594 377.671875 705.207031 377.847656 C 704.261719 378.207031 703.203125 378.324219 702.425781 378.210938 C 702.035156 378.160156 701.722656 378.058594 701.507812 377.953125 C 701.460938 377.9375 701.367188 377.882812 701.296875 377.84375 C 701.222656 377.800781 701.152344 377.753906 701.078125 377.710938 C 700.9375 377.613281 700.804688 377.503906 700.675781 377.382812 C 700.160156 376.910156 699.667969 376.144531 699.335938 375.128906 C 699.171875 374.621094 699.050781 374.0625 698.988281 373.476562 C 698.917969 372.890625 698.914062 372.296875 698.960938 371.65625 C 699.050781 370.367188 699.378906 368.90625 699.898438 367.421875 C 700.40625 365.9375 701.105469 364.433594 701.917969 362.984375 C 702.714844 361.554688 703.667969 360.179688 704.769531 358.75 C 705.871094 357.328125 707.101562 355.886719 708.402344 354.410156 C 711.003906 351.453125 713.894531 348.339844 716.589844 344.75 C 717.933594 342.957031 719.230469 341.039062 720.398438 338.996094 C 721.5625 336.949219 722.59375 334.769531 723.421875 332.492188 C 724.226562 330.285156 724.832031 327.996094 725.234375 325.6875 C 725.234375 325.679688 725.238281 325.667969 725.238281 325.660156 C 725.828125 322.855469 726.246094 319.246094 728.238281 316.226562 C 732.308594 309.707031 725.582031 297.621094 724.703125 295.539062 C 723.816406 293.445312 722.171875 289.789062 719.328125 289.789062 C 716.480469 289.789062 714.835938 293.445312 713.949219 295.539062 C 713.0625 297.632812 706.476562 309.507812 710.71875 316 C 712.359375 318.488281 712.78125 321.632812 712.070312 325.019531 C 711.835938 326.035156 711.550781 327.035156 711.199219 328.015625 C 710.097656 331.097656 708.386719 334.03125 706.214844 336.9375 C 704.050781 339.847656 701.441406 342.707031 698.699219 345.828125 C 697.328125 347.394531 695.925781 349.03125 694.554688 350.804688 C 693.871094 351.695312 693.195312 352.621094 692.539062 353.589844 C 691.890625 354.550781 691.242188 355.585938 690.671875 356.617188 C 689.515625 358.683594 688.507812 360.847656 687.707031 363.175781 C 686.910156 365.492188 686.304688 367.972656 686.105469 370.6875 C 686.007812 372.042969 686.019531 373.460938 686.175781 374.855469 C 686.332031 376.257812 686.621094 377.664062 687.070312 379.054688 C 687.523438 380.441406 688.132812 381.824219 688.941406 383.140625 C 689.742188 384.460938 690.75 385.710938 691.941406 386.8125 C 692.539062 387.363281 693.183594 387.871094 693.859375 388.332031 C 694.203125 388.558594 694.546875 388.777344 694.902344 388.976562 C 695.265625 389.179688 695.605469 389.367188 696.007812 389.550781 C 697.570312 390.289062 699.1875 390.71875 700.757812 390.921875 C 703.910156 391.3125 706.90625 390.859375 709.675781 389.828125 C 711.058594 389.308594 712.390625 388.628906 713.640625 387.785156 C 714.285156 387.347656 714.824219 386.925781 715.308594 386.527344 C 715.800781 386.121094 716.257812 385.71875 716.691406 385.328125 C 718.414062 383.742188 719.875 382.207031 721.300781 380.695312 L 723.351562 378.511719 C 723.988281 377.847656 724.609375 377.222656 725.222656 376.660156 C 726.453125 375.523438 727.660156 374.632812 728.796875 374.054688 L 729.21875 373.851562 L 729.632812 373.675781 C 729.769531 373.628906 729.910156 373.578125 730.046875 373.527344 C 730.175781 373.492188 730.296875 373.445312 730.429688 373.414062 C 730.949219 373.28125 731.496094 373.191406 732.070312 373.179688 C 733.21875 373.140625 734.460938 373.359375 735.632812 373.828125 C 736.808594 374.285156 737.90625 374.988281 738.785156 375.832031 C 739.230469 376.253906 739.613281 376.710938 739.941406 377.191406 C 740.277344 377.675781 740.5625 378.230469 740.804688 378.808594 C 741.777344 381.121094 741.859375 384.074219 741.015625 386.65625 C 740.808594 387.300781 740.546875 387.921875 740.238281 388.507812 C 740.078125 388.796875 739.925781 389.078125 739.734375 389.355469 C 739.636719 389.492188 739.554688 389.636719 739.453125 389.773438 L 739.140625 390.183594 C 738.710938 390.730469 738.21875 391.269531 737.667969 391.792969 C 737.113281 392.320312 736.492188 392.835938 735.832031 393.34375 C 734.5 394.355469 732.972656 395.320312 731.316406 396.292969 C 730.914062 396.527344 730.464844 396.792969 730.070312 397.011719 C 729.691406 397.21875 729.320312 397.429688 728.933594 397.632812 C 728.539062 397.824219 728.15625 398.027344 727.753906 398.21875 C 727.351562 398.402344 726.953125 398.59375 726.535156 398.773438 C 723.242188 400.21875 719.441406 401.425781 715.5625 402.761719 C 711.683594 404.082031 707.738281 405.523438 703.867188 407.105469 L 703.5 407.253906 L 703.078125 407.4375 C 702.796875 407.5625 702.507812 407.675781 702.230469 407.8125 L 701.398438 408.210938 L 700.574219 408.640625 C 699.492188 409.222656 698.4375 409.867188 697.429688 410.570312 C 696.421875 411.277344 695.453125 412.042969 694.527344 412.859375 C 693.605469 413.6875 692.734375 414.566406 691.910156 415.5 C 691.082031 416.433594 690.324219 417.433594 689.617188 418.476562 C 689.441406 418.746094 689.273438 418.984375 689.09375 419.28125 C 688.917969 419.570312 688.742188 419.859375 688.582031 420.15625 C 688.246094 420.742188 687.953125 421.347656 687.675781 421.957031 C 686.585938 424.40625 685.9375 427.003906 685.726562 429.640625 C 685.519531 432.277344 685.75 434.964844 686.480469 437.578125 C 687.214844 440.1875 688.441406 442.703125 690.21875 444.914062 C 691.976562 447.097656 694.140625 448.851562 696.53125 450.140625 C 697.726562 450.789062 698.984375 451.320312 700.285156 451.726562 C 701.585938 452.132812 702.9375 452.414062 704.316406 452.554688 C 705.699219 452.703125 707.109375 452.699219 708.519531 452.535156 C 709.226562 452.457031 709.933594 452.332031 710.632812 452.167969 C 711.328125 452.003906 712.039062 451.792969 712.683594 451.554688 C 715.316406 450.601562 717.558594 449.152344 719.449219 447.628906 C 721.34375 446.09375 722.9375 444.457031 724.382812 442.902344 C 725.816406 441.359375 727.109375 439.90625 728.378906 438.65625 C 729.640625 437.40625 730.898438 436.367188 732.113281 435.628906 C 733.269531 434.929688 734.582031 434.460938 735.738281 434.320312 C 736.316406 434.246094 736.847656 434.253906 737.308594 434.324219 C 737.539062 434.359375 737.75 434.410156 737.945312 434.476562 C 738.046875 434.507812 738.144531 434.542969 738.234375 434.582031 C 738.328125 434.625 738.410156 434.660156 738.535156 434.730469 C 739.4375 435.207031 740.222656 435.949219 740.851562 436.992188 C 741.484375 438.027344 741.9375 439.34375 742.160156 440.800781 C 742.273438 441.527344 742.328125 442.296875 742.335938 443.074219 C 742.339844 443.753906 742.277344 444.457031 742.148438 445.191406 C 741.894531 446.65625 741.394531 448.214844 740.664062 449.769531 C 740.304688 450.550781 739.882812 451.324219 739.4375 452.101562 C 739.007812 452.886719 738.527344 453.664062 738.054688 454.460938 C 737.109375 456.050781 736.15625 457.707031 735.109375 459.339844 C 734.070312 460.976562 732.960938 462.613281 731.824219 464.253906 C 729.550781 467.535156 727.144531 470.828125 724.816406 474.269531 C 722.492188 477.714844 720.210938 481.3125 718.515625 485.453125 C 717.691406 487.527344 717.007812 489.777344 716.898438 492.242188 C 716.886719 492.550781 716.871094 492.855469 716.886719 493.167969 L 716.902344 493.632812 L 716.929688 494.078125 C 716.972656 494.675781 717.042969 495.277344 717.164062 495.878906 C 717.398438 497.082031 717.8125 498.28125 718.382812 499.355469 C 718.949219 500.433594 719.648438 501.375 720.328125 502.199219 C 721.007812 503.023438 721.660156 503.75 722.191406 504.464844 C 722.460938 504.820312 722.699219 505.179688 722.898438 505.527344 C 723.074219 505.84375 723.222656 506.191406 723.335938 506.5625 C 723.550781 507.300781 723.621094 508.136719 723.550781 509 C 723.417969 510.734375 722.761719 512.539062 721.882812 514.242188 C 721.003906 515.957031 719.898438 517.601562 718.683594 519.175781 C 718.496094 519.417969 718.515625 519.757812 718.734375 519.972656 C 718.972656 520.199219 719.347656 520.195312 719.574219 519.957031 C 720.992188 518.488281 722.332031 516.921875 723.480469 515.183594 C 724.617188 513.445312 725.59375 511.527344 726.023438 509.347656 C 726.230469 508.261719 726.28125 507.113281 726.082031 505.953125 C 725.980469 505.378906 725.816406 504.800781 725.578125 504.246094 C 725.351562 503.714844 725.09375 503.222656 724.8125 502.746094 C 724.253906 501.800781 723.640625 500.957031 723.105469 500.144531 C 722.566406 499.332031 722.105469 498.546875 721.777344 497.742188 C 721.449219 496.9375 721.253906 496.113281 721.167969 495.261719 C 721.085938 494.410156 721.105469 493.507812 721.269531 492.6875 C 721.578125 491.003906 722.320312 489.324219 723.242188 487.707031 C 725.117188 484.464844 727.648438 481.441406 730.273438 478.46875 C 732.914062 475.492188 735.707031 472.566406 738.472656 469.515625 C 739.855469 467.992188 741.238281 466.4375 742.59375 464.820312 C 743.949219 463.207031 745.28125 461.53125 746.535156 459.734375 C 747.160156 458.835938 747.757812 457.902344 748.335938 456.941406 C 748.902344 455.96875 749.445312 454.964844 749.953125 453.917969 C 750.960938 451.824219 751.839844 449.539062 752.375 447.015625 C 752.636719 445.753906 752.8125 444.429688 752.851562 443.070312 C 752.882812 441.816406 752.84375 440.539062 752.6875 439.242188 C 752.386719 436.652344 751.652344 433.957031 750.226562 431.402344 " fill-opacity="1" fill-rule="nonzero"/></g></svg>