<svg xmlns="http://www.w3.org/2000/svg" xmlns:xlink="http://www.w3.org/1999/xlink" width="1920" zoomAndPan="magnify" viewBox="0 0 1440 809.999993" height="1080" preserveAspectRatio="xMidYMid meet" version="1.0"><defs><clipPath id="2e4af7319c"><path d="M 565.546875 250.691406 L 874.148438 250.691406 L 874.148438 559.292969 L 565.546875 559.292969 Z M 565.546875 250.691406 " clip-rule="nonzero"/></clipPath><clipPath id="7be2be784b"><path d="M 719.847656 250.691406 C 634.628906 250.691406 565.546875 319.773438 565.546875 404.992188 C 565.546875 490.210938 634.628906 559.292969 719.847656 559.292969 C 805.066406 559.292969 874.148438 490.210938 874.148438 404.992188 C 874.148438 319.773438 805.066406 250.691406 719.847656 250.691406 Z M 719.847656 250.691406 " clip-rule="nonzero"/></clipPath><clipPath id="a40871be4d"><path d="M 571.890625 257.035156 L 867.804688 257.035156 L 867.804688 552.949219 L 571.890625 552.949219 Z M 571.890625 257.035156 " clip-rule="nonzero"/></clipPath><clipPath id="d5ffb52be0"><path d="M 719.847656 257.035156 C 638.132812 257.035156 571.890625 323.277344 571.890625 404.992188 C 571.890625 486.707031 638.132812 552.949219 719.847656 552.949219 C 801.5625 552.949219 867.804688 486.707031 867.804688 404.992188 C 867.804688 323.277344 801.5625 257.035156 719.847656 257.035156 Z M 719.847656 257.035156 " clip-rule="nonzero"/></clipPath><clipPath id="57d783759f"><path d="M 631.796875 320.347656 L 807.890625 320.347656 L 807.890625 489.746094 L 631.796875 489.746094 Z M 631.796875 320.347656 " clip-rule="nonzero"/></clipPath></defs><rect x="-144" width="1728" fill="#ffffff" y="-80.999999" height="971.999992" fill-opacity="1"/><g clip-path="url(#2e4af7319c)"><g clip-path="url(#7be2be784b)"><path fill="#41d4d4" d="M 565.546875 250.691406 L 874.148438 250.691406 L 874.148438 559.292969 L 565.546875 559.292969 Z M 565.546875 250.691406 " fill-opacity="1" fill-rule="nonzero"/></g></g><g clip-path="url(#a40871be4d)"><g clip-path="url(#d5ffb52be0)"><path fill="#ffffff" d="M 571.890625 257.035156 L 867.804688 257.035156 L 867.804688 552.949219 L 571.890625 552.949219 Z M 571.890625 257.035156 " fill-opacity="1" fill-rule="nonzero"/></g></g><g clip-path="url(#57d783759f)"><path fill="#41d4d4" d="M 650.183594 439.441406 C 651.152344 443.441406 652.589844 447.320312 654.417969 451.007812 C 654.855469 451.851562 655.308594 452.695312 655.808594 453.511719 C 651.496094 455.824219 647.992188 459.402344 645.742188 463.75 C 643.585938 467.894531 644.679688 472.972656 648.320312 475.898438 C 653.058594 479.648438 658.6875 482.132812 664.640625 483.074219 C 671.050781 484.621094 677.585938 485.542969 684.183594 485.808594 L 715.136719 485.808594 C 715.589844 485.824219 715.949219 486.199219 715.917969 486.667969 C 715.902344 487.089844 715.558594 487.433594 715.136719 487.464844 L 684.230469 487.464844 C 674.539062 487.074219 664.863281 486.136719 655.277344 484.652344 C 649.949219 484.714844 644.757812 482.996094 640.503906 479.789062 C 633.390625 474.441406 631.96875 464.34375 637.332031 457.230469 C 637.472656 457.042969 637.628906 456.855469 637.785156 456.667969 C 642.285156 451.210938 646.429688 445.457031 650.183594 439.441406 Z M 755.269531 395.480469 C 757.847656 397.808594 760.707031 399.808594 763.757812 401.453125 C 765.179688 402.203125 766.757812 402.59375 768.367188 402.59375 L 776.40625 402.59375 C 780.078125 403.296875 782.71875 406.53125 782.671875 410.269531 C 782.1875 411.628906 780.828125 412.488281 779.390625 412.363281 C 778.46875 411.925781 777.6875 411.269531 777.109375 410.441406 C 775.402344 407.953125 771.996094 407.328125 769.511719 409.050781 C 769.496094 409.066406 769.464844 409.082031 769.433594 409.113281 C 766.976562 410.878906 764.195312 412.175781 761.253906 412.941406 C 759.628906 411.332031 758.347656 409.410156 757.472656 407.28125 C 756.082031 403.5 755.332031 399.511719 755.269531 395.480469 Z M 732.335938 322.644531 C 742.261719 323.035156 750 331.414062 749.609375 341.339844 C 749.59375 341.527344 749.59375 341.703125 749.578125 341.875 C 749.53125 342.5 750.015625 343.046875 750.65625 343.09375 C 751.28125 343.140625 751.828125 342.65625 751.875 342.03125 C 752.015625 339.886719 751.828125 337.746094 751.296875 335.667969 L 802.527344 335.667969 C 804.277344 335.683594 805.699219 337.105469 805.699219 338.855469 C 805.699219 339.246094 805.621094 339.636719 805.480469 339.996094 C 798.839844 356.914062 783.972656 369.230469 766.085938 372.578125 C 761.238281 373.484375 757.222656 376.84375 755.488281 381.472656 C 752.234375 390.054688 752.203125 399.511719 755.347656 408.125 C 757.175781 412.566406 760.550781 416.179688 764.882812 418.273438 C 766.210938 418.914062 767.664062 419.242188 769.136719 419.242188 L 772.152344 419.242188 C 775.808594 419.945312 778.46875 423.179688 778.421875 426.917969 C 777.9375 428.277344 776.578125 429.136719 775.136719 428.996094 C 773.933594 428.449219 772.980469 427.496094 772.417969 426.308594 C 771.933594 425.308594 770.933594 424.683594 769.808594 424.683594 L 756.597656 424.683594 C 752.1875 424.074219 747.90625 422.664062 743.996094 420.523438 C 741.355469 419.085938 738.039062 420.054688 736.585938 422.695312 C 736.289062 423.246094 736.085938 423.839844 735.976562 424.449219 C 734.132812 436.015625 727.722656 446.351562 718.21875 453.183594 C 717.328125 453.839844 717.125 455.089844 717.765625 455.996094 C 718.140625 456.511719 718.75 456.824219 719.390625 456.824219 L 720.15625 456.824219 C 725.691406 456.824219 730.644531 460.261719 732.570312 465.453125 L 732.648438 465.453125 C 732.726562 465.6875 732.617188 465.9375 732.382812 466.03125 C 732.320312 466.046875 732.273438 466.046875 732.226562 466.046875 L 682.527344 466.046875 C 671.519531 466.046875 661.46875 459.824219 656.542969 449.976562 C 649.351562 435.578125 649.117188 418.679688 655.902344 404.078125 C 663.375 385.988281 678.726562 372.34375 697.566406 367.042969 C 706.414062 365.121094 715.011719 362.242188 723.21875 358.445312 C 727.785156 360.898438 733.085938 361.617188 738.148438 360.460938 C 738.757812 360.320312 739.152344 359.710938 739.007812 359.085938 C 738.867188 358.476562 738.257812 358.085938 737.648438 358.226562 C 727.269531 360.585938 716.96875 354.082031 714.605469 343.71875 C 713.902344 340.605469 713.980469 337.371094 714.824219 334.308594 C 714.933594 333.929688 715.058594 333.570312 715.214844 333.226562 C 718.25 326.535156 725.003906 322.363281 732.335938 322.644531 Z M 731.648438 320.347656 C 723.640625 320.316406 716.355469 324.988281 713.058594 332.273438 C 712.855469 332.726562 712.667969 333.195312 712.542969 333.679688 C 710.105469 342.421875 713.402344 351.738281 720.78125 356.992188 C 713.121094 360.414062 705.132812 363.039062 696.925781 364.824219 C 677.414062 370.292969 661.484375 384.425781 653.730469 403.15625 C 648.945312 413.472656 647.460938 424.996094 649.492188 436.1875 C 645.476562 442.847656 640.972656 449.210938 636.019531 455.199219 C 629.546875 463.046875 630.640625 474.628906 638.472656 481.101562 C 638.691406 481.289062 638.910156 481.460938 639.128906 481.617188 C 643.742188 485.089844 649.351562 486.964844 655.121094 486.949219 C 664.75 488.417969 674.445312 489.355469 684.183594 489.746094 L 715.136719 489.746094 C 716.859375 489.746094 718.25 488.339844 718.234375 486.621094 C 718.234375 484.902344 716.84375 483.527344 715.136719 483.511719 L 684.230469 483.511719 C 677.773438 483.261719 671.363281 482.351562 665.097656 480.820312 C 659.484375 479.945312 654.199219 477.632812 649.742188 474.097656 C 646.945312 471.878906 646.117188 467.988281 647.757812 464.8125 C 649.835938 460.796875 653.089844 457.511719 657.089844 455.417969 C 662.984375 463.546875 672.429688 468.347656 682.449219 468.347656 L 732.148438 468.347656 C 733.648438 468.347656 734.882812 467.125 734.882812 465.609375 C 734.882812 465.28125 734.820312 464.953125 734.710938 464.65625 C 732.460938 458.605469 726.707031 454.574219 720.25 454.542969 C 729.863281 447.335938 736.320312 436.671875 738.226562 424.808594 C 738.507812 423.085938 740.136719 421.914062 741.871094 422.179688 C 742.214844 422.242188 742.558594 422.367188 742.886719 422.539062 C 747.078125 424.839844 751.6875 426.339844 756.425781 426.964844 L 769.792969 426.964844 C 770.027344 426.964844 770.230469 427.089844 770.324219 427.292969 C 771.167969 429.074219 772.652344 430.480469 774.480469 431.234375 C 777.25 431.703125 779.921875 429.996094 780.671875 427.292969 C 780.921875 422.226562 777.328125 417.789062 772.324219 416.945312 L 769.105469 416.945312 C 767.976562 416.945312 766.851562 416.695312 765.835938 416.210938 C 764.960938 415.769531 764.132812 415.269531 763.335938 414.707031 C 765.992188 413.847656 768.492188 412.582031 770.746094 410.957031 C 772.183594 409.941406 774.152344 410.269531 775.183594 411.691406 C 775.183594 411.707031 775.199219 411.722656 775.199219 411.738281 C 776.074219 413.003906 777.3125 414.003906 778.75 414.582031 C 781.515625 415.050781 784.191406 413.347656 784.941406 410.660156 C 785.175781 405.59375 781.59375 401.140625 776.59375 400.308594 L 768.335938 400.308594 C 767.117188 400.308594 765.914062 399.996094 764.820312 399.417969 C 761.335938 397.558594 758.144531 395.199219 755.332031 392.414062 C 755.582031 388.945312 756.316406 385.519531 757.550781 382.269531 C 758.988281 378.40625 762.367188 375.578125 766.429688 374.8125 C 785.066406 371.328125 800.589844 358.476562 807.515625 340.824219 C 808.609375 338.011719 807.234375 334.855469 804.417969 333.757812 C 803.777344 333.507812 803.121094 333.382812 802.449219 333.382812 L 750.484375 333.382812 C 747.484375 325.566406 739.996094 320.394531 731.632812 320.347656 L 731.648438 320.347656 " fill-opacity="1" fill-rule="nonzero"/></g><path fill="#41d4d4" d="M 777.171875 346.546875 C 777.25 344.828125 775.917969 343.375 774.199219 343.3125 C 772.480469 343.234375 771.027344 344.5625 770.949219 346.28125 C 770.949219 346.375 770.949219 346.453125 770.949219 346.546875 C 770.886719 348.265625 772.214844 349.722656 773.933594 349.785156 C 775.652344 349.863281 777.09375 348.53125 777.171875 346.8125 C 777.1875 346.71875 777.1875 346.640625 777.171875 346.546875 " fill-opacity="1" fill-rule="nonzero"/></svg>